<svg xmlns="http://www.w3.org/2000/svg" viewBox="0 0 616 592"><rect width="616" height="592" rx="120" fill="#0B141E"></rect><path fill="#F0F5F3" d="M119 268c0-5 0-10 .4-15 .5-10 .5-20 .6-30 .8-13 3.7-25 10-36 7.7-13 19-24 32-31 15-8 30-13 47-14 14 0 28-.5 43 3 21 5 40 15 55 32 9 11 16 24 18 39 3 18 3 36-1 54-3 13-9 26-17 37-13 16-29 27-48 34-13 5-27 8-41 9h-50v108c0 4-2 8-4 12-5 7-11 14-22 15h-8v-200M247 428c-1 5-3 9-4 14-3 12-3 24 2 36 5 11 12 20 23 25 15 7 31 8 47 1 20-8 29-24 31-45 0-1 0-1 .8-3v-360c.3-.4.3-.7 0-1 0 0 0-.5 0-.5 5 0 10-.3 15 .4 10 1 15 9 17 18-.4 1-.4 2-.4 3v338c0 3 .6 7 0 10-2 8-4 16-7 23-7 15-18 26-33 34-8 4-17 7-26 9-2 .5-4 .3-7 .4h-25c-17-.5-32-7-45-17-11-8-19-19-23-31-3-7-4-15-4-22-1-8-1-16 1-24 2-5 5-10 11-11 8 0 15 0 23 .5 1 0 3 .8 4 1"></path></svg>